<svg width="63" height="82" viewBox="0 0 63 82" fill="none" xmlns="http://www.w3.org/2000/svg">
<path d="M54.3469 31.3291C53.9594 28.0628 52.3881 25.5271 49.6328 23.722C46.8776 21.917 43.4982 21.0144 39.4945 21.0144C36.567 21.0144 34.0055 21.4872 31.81 22.4327C29.6359 23.3782 27.9354 24.6783 26.7085 26.3329C25.5031 27.9876 24.9004 29.8679 24.9004 31.9738C24.9004 33.7359 25.3201 35.2509 26.1596 36.5187C27.0206 37.7651 28.1184 38.8073 29.4529 39.6453C30.7875 40.4619 32.1867 41.1388 33.6504 41.676C35.1141 42.1918 36.4594 42.6108 37.6863 42.9331L44.4022 44.7382C46.1242 45.1895 48.04 45.8127 50.1494 46.6077C52.2804 47.4028 54.3146 48.488 56.2518 49.8633C58.2106 51.2171 59.825 52.9577 61.095 55.0851C62.365 57.2125 63 59.8234 63 62.9178C63 66.485 62.0637 69.7083 60.191 72.5879C58.3398 75.4674 55.6276 77.7559 52.0544 79.4536C48.5028 81.1512 44.187 82 39.107 82C34.3715 82 30.2709 81.2371 26.8053 79.7114C23.3613 78.1857 20.6491 76.0583 18.6688 73.3292C16.71 70.6001 15.6015 67.4305 15.3432 63.8204H23.6089C23.8241 66.3131 24.6636 68.376 26.1273 70.0092C27.6125 71.6208 29.4852 72.8242 31.7454 73.6193C34.0271 74.3929 36.4809 74.7797 39.107 74.7797C42.1636 74.7797 44.9081 74.2855 47.3404 73.297C49.7728 72.287 51.6993 70.8902 53.1199 69.1066C54.5406 67.3016 55.2509 65.1957 55.2509 62.7889C55.2509 60.597 54.6375 58.8134 53.4105 57.4382C52.1836 56.0629 50.5692 54.9454 48.5673 54.0859C46.5655 53.2263 44.4022 52.4742 42.0775 51.8296L33.941 49.5088C28.7749 48.026 24.6851 45.9094 21.6716 43.1588C18.6581 40.4082 17.1513 36.8088 17.1513 32.3606C17.1513 28.6645 18.1522 25.4412 20.1541 22.6906C22.1774 19.9185 24.8896 17.7696 28.2906 16.2439C31.7131 14.6967 35.5338 13.9231 39.7528 13.9231C44.0148 13.9231 47.8032 14.686 51.1181 16.2117C54.433 17.7159 57.059 19.7788 58.9963 22.4005C60.9551 25.0221 61.9883 27.9983 62.0959 31.3291H54.3469Z" fill="#544E4E"/>
<path d="M0 66.014V0H22.3432C27.5092 0 31.7497 0.881046 35.0646 2.64314C38.3795 4.38374 40.8333 6.77975 42.4262 9.83118C44.0191 12.8826 44.8155 16.3531 44.8155 20.2426C44.8155 24.1321 44.0191 27.581 42.4262 30.5895C40.8333 33.5979 38.3902 35.9617 35.0969 37.6808C31.8035 39.3784 27.5953 40.2273 22.4723 40.2273H4.39114V33.007H22.214C25.7442 33.007 28.5855 32.4912 30.738 31.4598C32.9121 30.4283 34.4834 28.9671 35.452 27.076C36.4422 25.1635 36.9373 22.8857 36.9373 20.2426C36.9373 17.5994 36.4422 15.2894 35.452 13.3124C34.4619 11.3354 32.8798 9.80969 30.7057 8.73525C28.5317 7.63931 25.6581 7.09134 22.0849 7.09134H8.00738V66.014H0ZM31.1255 36.3592L47.3985 66.014H38.0996L22.0849 36.3592H31.1255Z" fill="black"/>
</svg>
