<svg width="32" height="32" viewBox="0 0 32 32" fill="none" xmlns="http://www.w3.org/2000/svg">
<path d="M26.666 0H5.334C2.4 0 0 2.4 0 5.334V26.666C0 29.6 2.4 32 5.334 32H26.666C29.602 32 32 29.6 32 26.666V5.334C32 2.4 29.602 0 26.666 0ZM8 8H24C24.286 8 24.562 8.062 24.818 8.176L16 18.462L7.182 8.176C7.436 8.06 7.714 8 8 8ZM6 22V10C6 9.958 6.002 9.916 6.004 9.874L11.868 16.716L6.068 22.516C6.022 22.35 6 22.176 6 22ZM24 24H8C7.824 24 7.65 23.976 7.484 23.932L13.176 18.24L16.002 21.536L18.828 18.24L24.52 23.932C24.354 23.978 24.18 24 24.004 24H24ZM26 22C26 22.176 25.976 22.35 25.932 22.516L20.132 16.716L25.996 9.874C25.998 9.916 26 9.958 26 10V22Z" fill="#ECECEC"/>
</svg>
