<svg width="25" height="25" viewBox="0 0 25 25" fill="none" xmlns="http://www.w3.org/2000/svg">
<path d="M12.5 17.5C15.2614 17.5 17.5 15.2614 17.5 12.5C17.5 9.73857 15.2614 7.5 12.5 7.5V17.5Z" fill="black"/>
<path fill-rule="evenodd" clip-rule="evenodd" d="M12.5 0C5.59644 0 0 5.59644 0 12.5C0 19.4035 5.59644 25 12.5 25C19.4035 25 25 19.4035 25 12.5C25 5.59644 19.4035 0 12.5 0ZM12.5 2.5V7.5C9.73857 7.5 7.5 9.73857 7.5 12.5C7.5 15.2614 9.73857 17.5 12.5 17.5V22.5C18.0229 22.5 22.5 18.0229 22.5 12.5C22.5 6.97715 18.0229 2.5 12.5 2.5Z" fill="black"/>
</svg>
