<svg width="32" height="32" viewBox="0 0 32 32" fill="none" xmlns="http://www.w3.org/2000/svg">
<path fill-rule="evenodd" clip-rule="evenodd" d="M2.36064 0.00012118H29.6391C30.2563 -0.00481561 30.8505 0.234046 31.2925 0.664787C31.7346 1.09553 31.9887 1.68333 31.9998 2.30043V29.6891C31.9915 30.308 31.7385 30.8985 31.2962 31.3315C30.8538 31.7645 30.2581 32.0048 29.6391 31.9999H2.36064C1.7426 32.0062 1.14724 31.7674 0.704826 31.3358C0.262414 30.9042 0.00898559 30.3149 0 29.6969V2.3083C0.00760945 1.68939 0.260433 1.09877 0.702995 0.666039C1.14556 0.233311 1.74171 -0.00617774 2.36064 0.00012118ZM9.48714 11.9948H4.73701V27.2786H9.48714V11.9948ZM8.64374 4.85261C8.19078 4.54987 7.65821 4.38828 7.11339 4.38828C6.38342 4.38828 5.6833 4.67808 5.16689 5.194C4.65047 5.70992 4.36001 6.40976 4.35931 7.13973C4.35879 7.68455 4.51988 8.21728 4.82218 8.67053C5.12449 9.12378 5.55443 9.47719 6.05763 9.68604C6.56083 9.89489 7.11466 9.94981 7.64907 9.84383C8.18349 9.73786 8.67446 9.47577 9.05989 9.09071C9.44531 8.70565 9.70787 8.21493 9.81435 7.68061C9.92083 7.14631 9.86645 6.59242 9.65808 6.08902C9.4497 5.58563 9.09671 5.15534 8.64374 4.85261ZM17.0202 11.9948H12.4668V27.2786H17.2091V19.7272C17.2091 17.7233 17.6235 15.7928 20.0602 15.7928C22.4969 15.7928 22.5284 18.0721 22.5284 19.8426V27.2786H27.2785V18.8852C27.2785 14.7803 26.3867 11.6145 21.5762 11.625C19.2654 11.625 17.7179 12.8918 17.0831 14.0931H17.0202V11.9948Z" fill="#ECECEC"/>
</svg>
